# xmcd
#
# Track frame offsets:
#	150
#	25230
#	51590
#	76480
#	90557
#
# Disc length: 1562 seconds
#
# Revision: 1
# Processed by: cddbd v1.4PL0 Copyright (c) Steve Scherf et al.
# Submitted via: CDmax 1.8
#
DISCID=38061805
DTITLE=George Clinton ft Ron Ford, Brides and Parlet - Bubble Gum Gangster
DYEAR=1993
DGENRE=Funk
TTITLE0=Bubble Gum Gangster (Double Bubbble Mix Radio Vocal)
TTITLE1=Bubble Gum Gangster (Boomin' Bazooka Club Vocal Mix)
TTITLE2=Bubble Gum Gangster (Poppin' P Mix Instrumental)
TTITLE3=Bubble Gum Gangster (Original Mix)
TTITLE4=Bubble Gum Gangster (Chiclets Pieces)
EXTD=ger@co
EXTT0=
EXTT1=
EXTT2=
EXTT3=
EXTT4=
PLAYORDER=
